<svg width="233" height="232" viewBox="0 0 233 232" fill="none" xmlns="http://www.w3.org/2000/svg">
<ellipse cx="116.5" cy="116" rx="116.5" ry="116" fill="#FD6B6B"/>
<path d="M117.091 169.273C111.091 169.273 105.742 168.242 101.045 166.182C96.3788 164.121 92.6667 161.258 89.9091 157.591C87.1818 153.894 85.697 149.606 85.4545 144.727H96.9091C97.1515 147.727 98.1818 150.318 100 152.5C101.818 154.652 104.197 156.318 107.136 157.5C110.076 158.682 113.333 159.273 116.909 159.273C120.909 159.273 124.455 158.576 127.545 157.182C130.636 155.788 133.061 153.848 134.818 151.364C136.576 148.879 137.455 146 137.455 142.727C137.455 139.303 136.606 136.288 134.909 133.682C133.212 131.045 130.727 128.985 127.455 127.5C124.182 126.015 120.182 125.273 115.455 125.273H108V115.273H115.455C119.152 115.273 122.394 114.606 125.182 113.273C128 111.939 130.197 110.061 131.773 107.636C133.379 105.212 134.182 102.364 134.182 99.0909C134.182 95.9394 133.485 93.197 132.091 90.8636C130.697 88.5303 128.727 86.7121 126.182 85.4091C123.667 84.1061 120.697 83.4545 117.273 83.4545C114.061 83.4545 111.03 84.0455 108.182 85.2273C105.364 86.3788 103.061 88.0606 101.273 90.2727C99.4848 92.4545 98.5152 95.0909 98.3636 98.1818H87.4545C87.6364 93.303 89.1061 89.0303 91.8636 85.3636C94.6212 81.6667 98.2273 78.7879 102.682 76.7273C107.167 74.6667 112.091 73.6364 117.455 73.6364C123.212 73.6364 128.152 74.803 132.273 77.1364C136.394 79.4394 139.561 82.4848 141.773 86.2727C143.985 90.0606 145.091 94.1515 145.091 98.5455C145.091 103.788 143.712 108.258 140.955 111.955C138.227 115.652 134.515 118.212 129.818 119.636V120.364C135.697 121.333 140.288 123.833 143.591 127.864C146.894 131.864 148.545 136.818 148.545 142.727C148.545 147.788 147.167 152.333 144.409 156.364C141.682 160.364 137.955 163.515 133.227 165.818C128.5 168.121 123.121 169.273 117.091 169.273Z" fill="white"/>
</svg>
