<svg width="184" height="120" viewBox="0 0 184 120" fill="none" xmlns="http://www.w3.org/2000/svg">
<path d="M0 60C0 26.8629 26.8629 0 60 0L124 0C157.137 0 184 26.8629 184 60V60C184 93.1371 157.137 120 124 120H60C26.8629 120 0 93.1371 0 60V60Z" fill="#3D4EAE"/>
<path d="M85.2031 83.5469C79.8385 82.0365 75.4635 79.0813 72.0781 74.6813C68.6927 70.2792 67 65.2135 67 59.4844C67 56.5156 67.4948 53.6896 68.4844 51.0062C69.474 48.325 70.8802 45.8646 72.7031 43.625C73.276 43 73.9792 42.674 74.8125 42.6469C75.6458 42.6219 76.401 42.9479 77.0781 43.625C77.651 44.1979 77.951 44.901 77.9781 45.7344C78.0031 46.5677 77.7292 47.349 77.1562 48.0781C75.9062 49.6927 74.9427 51.4635 74.2656 53.3906C73.5885 55.3177 73.25 57.349 73.25 59.4844C73.25 63.7031 74.4875 67.4667 76.9625 70.775C79.4354 74.0812 82.625 76.3333 86.5312 77.5312C87.2083 77.7396 87.7688 78.1302 88.2125 78.7031C88.6542 79.276 88.875 79.901 88.875 80.5781C88.875 81.6198 88.5104 82.4406 87.7812 83.0406C87.0521 83.6385 86.1927 83.8073 85.2031 83.5469ZM98.7969 83.5469C97.8073 83.8073 96.9479 83.625 96.2188 83C95.4896 82.375 95.125 81.5417 95.125 80.5C95.125 79.875 95.3469 79.276 95.7906 78.7031C96.2323 78.1302 96.7917 77.7396 97.4687 77.5312C101.375 76.2812 104.565 74.0156 107.037 70.7344C109.513 67.4531 110.75 63.7031 110.75 59.4844C110.75 54.276 108.927 49.849 105.281 46.2031C101.635 42.5573 97.2083 40.7344 92 40.7344H91.7656L93.0156 41.9844C93.5885 42.5573 93.875 43.2865 93.875 44.1719C93.875 45.0573 93.5885 45.7865 93.0156 46.3594C92.4427 46.9323 91.7135 47.2187 90.8281 47.2187C89.9427 47.2187 89.2135 46.9323 88.6406 46.3594L82.0781 39.7969C81.7656 39.4844 81.5448 39.1458 81.4156 38.7812C81.2844 38.4167 81.2188 38.026 81.2188 37.6094C81.2188 37.1927 81.2844 36.8021 81.4156 36.4375C81.5448 36.0729 81.7656 35.7344 82.0781 35.4219L88.6406 28.8594C89.2135 28.2865 89.9427 28 90.8281 28C91.7135 28 92.4427 28.2865 93.0156 28.8594C93.5885 29.4323 93.875 30.1615 93.875 31.0469C93.875 31.9323 93.5885 32.6615 93.0156 33.2344L91.7656 34.4844H92C98.9792 34.4844 104.891 36.9062 109.734 41.75C114.578 46.5937 117 52.5052 117 59.4844C117 65.1615 115.307 70.2135 111.922 74.6406C108.536 79.0677 104.161 82.0365 98.7969 83.5469Z" fill="white"/>
</svg>
